<?xml version="1.0" encoding="utf-8"?>
<!-- Generator: Adobe Illustrator 20.0.0, SVG Export Plug-In . SVG Version: 6.00 Build 0)  -->
<svg version="1.1" id="Capa_1" xmlns="http://www.w3.org/2000/svg" xmlns:xlink="http://www.w3.org/1999/xlink" x="0px" y="0px"
	 viewBox="0 0 120 120" style="enable-background:new 0 0 120 120;" xml:space="preserve">
<style type="text/css">
	.st0{fill:#E63534;}
	.st1{fill:#FFFFFF;}
</style>
<rect class="st0" width="120" height="120"/>
<g>
	<g>
		<g>
			<path class="st1" d="M72.1,68.5c-0.8,0-1.4,0.6-1.4,1.4v9.3c0,3.7-3,6.7-6.7,6.7H49.5c-0.8,0-1.4,0.6-1.4,1.4v2.7l-3.2-3.2
				c-0.2-0.5-0.7-0.8-1.2-0.8h-8.8c-3.7,0-6.7-3-6.7-6.7V58.4c0-3.7,3-6.7,6.7-6.7h13.6c0.8,0,1.4-0.6,1.4-1.4s-0.6-1.4-1.4-1.4
				H34.9c-5.2,0-9.4,4.2-9.4,9.4v20.7c0,5.2,4.2,9.4,9.4,9.4H43l5.5,5.5c0.3,0.3,0.6,0.4,0.9,0.4c0.2,0,0.3,0,0.5-0.1
				c0.5-0.2,0.9-0.7,0.9-1.2v-4.6H64c5.2,0,9.4-4.2,9.4-9.4v-9.3C73.4,69.1,72.8,68.5,72.1,68.5z"/>
		</g>
	</g>
	<g>
		<g>
			<path class="st1" d="M74.9,25.6h-3.4c-10.8,0-19.5,8.8-19.5,19.5s8.8,19.5,19.5,19.5h3.4c1.7,0,3.4-0.2,5-0.6l5,5
				c0.3,0.3,0.6,0.4,0.9,0.4c0.2,0,0.3,0,0.5-0.1c0.5-0.2,0.9-0.7,0.9-1.2v-7.7c2.2-1.7,3.9-3.9,5.2-6.4c1.4-2.8,2.2-5.8,2.2-8.9
				C94.4,34.4,85.6,25.6,74.9,25.6z M85,58.7c-0.3,0.3-0.5,0.7-0.5,1v5.2l-3.3-3.3c-0.3-0.3-0.6-0.4-0.9-0.4c-0.2,0-0.3,0-0.4,0.1
				c-1.6,0.5-3.3,0.8-5,0.8h-3.4c-9.3,0-16.9-7.6-16.9-16.9s7.6-16.9,16.9-16.9h3.4c9.3,0,16.9,7.6,16.9,16.9
				C91.7,50.5,89.2,55.4,85,58.7z"/>
		</g>
	</g>
	<g>
		<g>
			<path class="st1" d="M79.2,40.3c-0.2-2.8-2.5-5.1-5.3-5.3c-1.6-0.1-3.1,0.4-4.3,1.5c-1.1,1-1.8,2.6-1.8,4.1
				c0,0.8,0.6,1.4,1.4,1.4s1.4-0.6,1.4-1.4c0-0.9,0.3-1.6,0.9-2.2c0.6-0.6,1.4-0.9,2.2-0.8c1.5,0.1,2.7,1.3,2.8,2.8
				c0.1,1.5-0.9,2.8-2.3,3.2c-1.2,0.3-2,1.3-2,2.5v3.3c0,0.8,0.6,1.4,1.4,1.4c0.8,0,1.4-0.6,1.4-1.4v-3.2
				C77.6,45.6,79.4,43.2,79.2,40.3z"/>
		</g>
	</g>
	<g>
		<g>
			<path class="st1" d="M74.5,53.8c-0.3-0.3-0.6-0.4-0.9-0.4c-0.3,0-0.7,0.2-0.9,0.4c-0.3,0.3-0.4,0.6-0.4,0.9s0.2,0.7,0.4,0.9
				c0.3,0.3,0.6,0.4,0.9,0.4c0.3,0,0.7-0.2,0.9-0.4c0.3-0.3,0.4-0.6,0.4-0.9C74.9,54.4,74.7,54,74.5,53.8z"/>
		</g>
	</g>
	<g>
		<g>
			<path class="st1" d="M62.5,67.3H34.1c-0.8,0-1.4,0.6-1.4,1.4s0.6,1.4,1.4,1.4h28.4c0.8,0,1.4-0.6,1.4-1.4
				C63.8,67.9,63.2,67.3,62.5,67.3z"/>
		</g>
	</g>
	<g>
		<g>
			<path class="st1" d="M63.5,75.2c-0.3-0.3-0.6-0.4-0.9-0.4c-0.3,0-0.7,0.2-0.9,0.4c-0.3,0.3-0.4,0.6-0.4,0.9
				c0,0.3,0.2,0.7,0.4,0.9c0.3,0.3,0.6,0.4,0.9,0.4c0.3,0,0.7-0.2,0.9-0.4c0.3-0.3,0.4-0.6,0.4-0.9C63.8,75.8,63.7,75.5,63.5,75.2z"
				/>
		</g>
	</g>
	<g>
		<g>
			<path class="st1" d="M57.2,74.9H34.1c-0.8,0-1.4,0.6-1.4,1.4c0,0.8,0.6,1.4,1.4,1.4h23.1c0.8,0,1.4-0.6,1.4-1.4
				S58,74.9,57.2,74.9z"/>
		</g>
	</g>
	<g>
		<g>
			<path class="st1" d="M53.8,59.8H34.1c-0.8,0-1.4,0.6-1.4,1.4c0,0.8,0.6,1.4,1.4,1.4h19.6c0.8,0,1.4-0.6,1.4-1.4
				C55.1,60.4,54.5,59.8,53.8,59.8z"/>
		</g>
	</g>
</g>
</svg>
