<svg width="10" height="8" viewBox="0 0 10 8" fill="none" xmlns="http://www.w3.org/2000/svg">
<path d="M3.14703 7.99598C6.91988 7.99598 8.98254 4.9178 8.98254 2.24859C8.98254 2.16101 8.98254 2.07423 8.97683 1.98746C9.37828 1.702 9.72477 1.34827 10 0.942914C9.62599 1.10722 9.22915 1.21555 8.82262 1.26431C9.25036 1.01158 9.57064 0.614817 9.72422 0.147454C9.32055 0.382975 8.87906 0.548997 8.41873 0.638387C8.13747 0.342965 7.77254 0.137612 7.37128 0.0489786C6.97003 -0.0396551 6.55099 -0.00747951 6.16854 0.141333C5.78609 0.290146 5.45789 0.54873 5.22653 0.883516C4.99517 1.2183 4.87133 1.61384 4.87108 2.01879C4.87084 2.17397 4.88835 2.32868 4.9233 2.48C4.10783 2.43945 3.31013 2.23059 2.58188 1.86696C1.85364 1.50334 1.21112 0.993062 0.695983 0.369219C0.433791 0.813856 0.353572 1.34019 0.471663 1.84104C0.589754 2.34188 0.897271 2.77956 1.33159 3.06493C1.00569 3.0551 0.686968 2.96831 0.402252 2.81184C0.402252 2.82068 0.402252 2.82871 0.402252 2.83755C0.402286 3.3038 0.566103 3.75567 0.865917 4.11653C1.16573 4.47738 1.58308 4.725 2.04716 4.81736C1.87113 4.8647 1.68949 4.88875 1.50702 4.88887C1.37747 4.88872 1.24823 4.87634 1.12108 4.8519C1.25198 5.25334 1.50702 5.60446 1.85052 5.85614C2.19402 6.10783 2.60881 6.2475 3.03688 6.25562C2.31046 6.81733 1.41316 7.12187 0.489556 7.12018C0.325951 7.12029 0.162482 7.11089 0 7.09205C0.937555 7.68589 2.02902 8.00112 3.14377 8" fill="#E63534"/>
</svg>
