<svg width="10" height="10" viewBox="0 0 10 10" fill="none" xmlns="http://www.w3.org/2000/svg">
<rect width="10" height="10" fill="black" fill-opacity="0"/>
<path d="M0.164045 3.32023H2.23611V10H0.164045V3.32023ZM1.20086 2.56797e-07C1.43852 -0.00015523 1.67089 0.0703011 1.86858 0.202469C2.06628 0.334636 2.22042 0.52258 2.31151 0.742522C2.4026 0.962463 2.42656 1.20453 2.38035 1.43811C2.33414 1.67169 2.21983 1.8863 2.05189 2.05479C1.88394 2.22328 1.6699 2.33809 1.43684 2.3847C1.20377 2.43131 0.962154 2.40762 0.742524 2.31664C0.522894 2.22566 0.33512 2.07146 0.202953 1.87355C0.0707865 1.67564 0.000155284 1.44291 0 1.20478C-2.71519e-07 0.885522 0.126472 0.57932 0.351631 0.353425C0.576789 0.127529 0.882227 0.00041704 1.20086 2.56797e-07Z" fill="#E63534"/>
<path d="M3.53589 3.3203H5.52397V4.23411H5.55223C5.8285 3.70878 6.50428 3.15515 7.51441 3.15515C9.61316 3.15515 10.0001 4.53844 10.0001 6.33618V10.0001H7.92881V6.7522C7.92881 5.97758 7.91547 4.98041 6.85197 4.98041C5.77434 4.98041 5.60952 5.82501 5.60952 6.69635V9.99928H3.53825L3.53589 3.3203Z" fill="#E63534"/>
</svg>
